<svg width="64" height="64" viewBox="0 0 64 64" fill="none" xmlns="http://www.w3.org/2000/svg">
<g clip-path="url(#clip0)">
<path d="M49.3957 63.1122H8.71962C7.70016 63.1122 6.87392 62.2859 6.87392 61.2665C6.87392 60.247 7.70016 59.4208 8.71962 59.4208H49.3957C51.3586 59.4208 52.9549 57.8241 52.9549 55.8616V47.9923C52.9549 46.0298 51.3586 44.4331 49.3957 44.4331H31.5606C27.5626 44.4331 24.31 41.1806 24.31 37.1825V29.209C24.31 27.2465 22.7133 25.6498 20.7508 25.6498H13.9948C9.99671 25.6498 6.74414 22.3972 6.74414 18.3991V7.36292C6.74414 3.36487 9.99671 0.112305 13.9948 0.112305H31.8303C35.8283 0.112305 39.0809 3.36487 39.0809 7.36292L39.0804 16.0584C39.0804 18.0209 40.6771 19.6176 42.6396 19.6176H54.493C55.5124 19.6176 56.3387 20.4438 56.3387 21.4633C56.3387 22.4828 55.5124 23.309 54.493 23.309H42.6396C38.6416 23.309 35.389 20.0564 35.389 16.0584L35.3895 7.36292C35.3895 5.40043 33.7928 3.8037 31.8303 3.8037H13.9948C12.0323 3.8037 10.4355 5.40043 10.4355 7.36292V18.3991C10.4355 20.3616 12.0323 21.9584 13.9948 21.9584H20.7508C24.7488 21.9584 28.0014 25.2109 28.0014 29.209V37.183C28.0014 39.1455 29.5981 40.7422 31.5606 40.7422H49.3957C53.3937 40.7422 56.6463 43.9948 56.6463 47.9928V55.8616C56.6463 59.8596 53.3937 63.1122 49.3957 63.1122V63.1122Z" fill="#C9DFF7"/>
<path d="M49.3957 40.7422H31.8303V44.4337H49.3957C51.3587 44.4337 52.955 46.0299 52.955 47.9929V55.8616C52.955 57.8241 51.3587 59.4209 49.3957 59.4209H31.8303V63.1123H49.3957C53.3938 63.1123 56.6464 59.8597 56.6464 55.8616V47.9929C56.6464 43.9948 53.3938 40.7422 49.3957 40.7422V40.7422Z" fill="#AECEF2"/>
<path d="M35.3895 7.36294L35.3891 16.0584C35.3891 20.0565 38.6416 23.309 42.6397 23.309H54.4931C55.5125 23.309 56.3388 22.4828 56.3388 21.4633C56.3388 20.4439 55.5125 19.6176 54.4931 19.6176H42.6397C40.6772 19.6176 39.0805 18.0209 39.0805 16.0584L39.081 7.36294C39.081 3.36488 35.8284 0.112305 31.8303 0.112305V3.80371C33.7928 3.80371 35.3895 5.40044 35.3895 7.36294V7.36294Z" fill="#AECEF2"/>
<path d="M54.4929 23.309C53.9868 23.309 53.5023 23.1009 53.1538 22.7337C53.0808 22.6563 51.3394 20.8125 49.5835 18.2353C47.126 14.627 45.8796 11.4273 45.8796 8.72559C45.8796 3.97626 49.7436 0.112305 54.4929 0.112305C59.2422 0.112305 63.1062 3.97626 63.1062 8.72559C63.1062 11.4273 61.8599 14.627 59.4018 18.2353C57.6465 20.8125 55.9051 22.6563 55.8315 22.7337C55.4835 23.1009 54.9995 23.309 54.4929 23.309Z" fill="#7E9BCC"/>
<path d="M55.832 22.7337C55.9051 22.6563 57.6465 20.8125 59.4023 18.2353C61.8604 14.627 63.1062 11.4273 63.1062 8.72559C63.1062 3.97626 59.2422 0.112305 54.4929 0.112305V23.309C54.9995 23.309 55.4835 23.1009 55.832 22.7337Z" fill="#5877A6"/>
<path d="M54.4929 11.7551C53.6825 11.7551 52.8909 11.4273 52.3189 10.8548C51.7446 10.2809 51.4167 9.48927 51.4167 8.67889C51.4167 7.869 51.7446 7.07544 52.3189 6.50298C52.8909 5.93101 53.6825 5.60272 54.4929 5.60272C55.3028 5.60272 56.0945 5.93101 56.6684 6.50298C57.2408 7.07544 57.5691 7.869 57.5691 8.67889C57.5691 9.48927 57.2408 10.2809 56.6684 10.8548C56.0945 11.4273 55.3028 11.7551 54.4929 11.7551Z" fill="#28415E"/>
<path d="M54.4929 5.60272V11.7551C55.3028 11.7551 56.0945 11.4273 56.6684 10.8548C57.2408 10.2809 57.5691 9.48927 57.5691 8.67889C57.5691 7.869 57.2408 7.07544 56.6684 6.50298C56.0945 5.93101 55.3028 5.60272 54.4929 5.60272Z" fill="#18304A"/>
<path d="M8.71948 63.1123C8.21288 63.1123 7.72886 62.9042 7.38039 62.537C7.30733 62.4596 5.56593 60.6158 3.8101 58.0386C1.35253 54.4298 0.106201 51.2306 0.106201 48.5289C0.106201 43.7795 3.97016 39.9156 8.71948 39.9156C13.4688 39.9156 17.3328 43.7795 17.3328 48.5289C17.3328 51.2306 16.0864 54.4298 13.6284 58.0386C11.873 60.6158 10.1316 62.4596 10.0581 62.537C9.71011 62.9042 9.22561 63.1123 8.71948 63.1123Z" fill="#FF5C42"/>
<path d="M10.0586 62.537C10.1316 62.4596 11.873 60.6158 13.6289 58.0386C16.0864 54.4298 17.3328 51.2306 17.3328 48.5289C17.3328 43.7795 13.4688 39.9156 8.71948 39.9156V63.1123C9.22561 63.1123 9.71011 62.9042 10.0586 62.537Z" fill="#E34F25"/>
<path d="M8.71948 51.5579C7.90958 51.5579 7.11603 51.2301 6.54357 50.6581C5.9716 50.0838 5.64331 49.2921 5.64331 48.4818C5.64331 47.6719 5.9716 46.8802 6.54357 46.3063C7.11603 45.7339 7.90958 45.4061 8.71948 45.4061C9.52986 45.4061 10.321 45.7339 10.8935 46.3063C11.4674 46.8802 11.7957 47.6719 11.7957 48.4818C11.7957 49.2921 11.4674 50.0838 10.8935 50.6581C10.321 51.2301 9.52746 51.5579 8.71948 51.5579Z" fill="#28415E"/>
<path d="M8.71948 45.4061V51.5579C9.52746 51.5579 10.321 51.2301 10.8935 50.6581C11.4674 50.0838 11.7957 49.2921 11.7957 48.4818C11.7957 47.6719 11.4674 46.8802 10.8935 46.3063C10.321 45.7339 9.52986 45.4061 8.71948 45.4061Z" fill="#18304A"/>
</g>
<defs>
<clipPath id="clip0">
<rect width="63" height="63" fill="white" transform="translate(0.106201 0.112305)"/>
</clipPath>
</defs>
</svg>
